<svg width="170" height="222" viewBox="0 0 170 222" fill="none" xmlns="http://www.w3.org/2000/svg">
<rect width="170" height="222" fill="white"/>
<path fill-rule="evenodd" clip-rule="evenodd" d="M85 193.605C115.984 193.605 141.419 168.437 141.419 137C141.419 105.563 115.984 80.3948 85 80.3948C54.0162 80.3948 28.5808 105.563 28.5808 137C28.5808 168.437 54.0162 193.605 85 193.605ZM85 222C131.944 222 170 183.944 170 137C170 90.0558 131.944 52 85 52C38.0558 52 0 90.0558 0 137C0 183.944 38.0558 222 85 222Z" fill="#9CC68A"/>
<circle r="8" transform="matrix(-1 0 0 1 87 68)" fill="#3B3B3B"/>
<path d="M82.3438 94H81.0156V88.625H75V94H73.6719V82.5781H75V87.4375H81.0156V82.5781H82.3438V94ZM94.6016 88.1797C94.6016 90.0651 94.0885 91.5078 93.0625 92.5078C92.0417 93.5026 90.5703 94 88.6484 94H85.4844V82.5781H88.9844C90.7604 82.5781 92.1406 83.0703 93.125 84.0547C94.1094 85.0391 94.6016 86.4141 94.6016 88.1797ZM93.1953 88.2266C93.1953 86.737 92.8203 85.6146 92.0703 84.8594C91.3255 84.1042 90.2161 83.7266 88.7422 83.7266H86.8125V92.8516H88.4297C90.013 92.8516 91.2031 92.4635 92 91.6875C92.7969 90.9062 93.1953 89.7526 93.1953 88.2266ZM97.1562 94V82.5781H98.4844V92.7969H103.523V94H97.1562Z" fill="#262626"/>
</svg>
