<svg width="170" height="222" viewBox="0 0 170 222" fill="none" xmlns="http://www.w3.org/2000/svg">
<rect width="170" height="222" fill="white"/>
<circle r="8" transform="matrix(-1 0 0 1 87 98)" fill="#EB5E43"/>
<path d="M82.3438 124H81.0156V118.625H75V124H73.6719V112.578H75V117.438H81.0156V112.578H82.3438V124ZM94.6016 118.18C94.6016 120.065 94.0885 121.508 93.0625 122.508C92.0417 123.503 90.5703 124 88.6484 124H85.4844V112.578H88.9844C90.7604 112.578 92.1406 113.07 93.125 114.055C94.1094 115.039 94.6016 116.414 94.6016 118.18ZM93.1953 118.227C93.1953 116.737 92.8203 115.615 92.0703 114.859C91.3255 114.104 90.2161 113.727 88.7422 113.727H86.8125V122.852H88.4297C90.013 122.852 91.2031 122.464 92 121.688C92.7969 120.906 93.1953 119.753 93.1953 118.227ZM97.1562 124V112.578H98.4844V122.797H103.523V124H97.1562Z" fill="#262626"/>
<path fill-rule="evenodd" clip-rule="evenodd" d="M85 193.605C115.984 193.605 141.419 168.437 141.419 137C141.419 105.563 115.984 80.3948 85 80.3948C54.0162 80.3948 28.5808 105.563 28.5808 137C28.5808 168.437 54.0162 193.605 85 193.605ZM85 222C131.944 222 170 183.944 170 137C170 90.0558 131.944 52 85 52C38.0558 52 0 90.0558 0 137C0 183.944 38.0558 222 85 222Z" fill="#9CC68A"/>
</svg>
