<svg width="170" height="222" viewBox="0 0 170 222" fill="none" xmlns="http://www.w3.org/2000/svg">
<rect width="170" height="222" fill="white"/>
<circle r="8" transform="matrix(-1 0 0 1 87 31)" fill="#EB5E43"/>
<path d="M82.3438 17H81.0156V11.625H75V17H73.6719V5.57812H75V10.4375H81.0156V5.57812H82.3438V17ZM94.6016 11.1797C94.6016 13.0651 94.0885 14.5078 93.0625 15.5078C92.0417 16.5026 90.5703 17 88.6484 17H85.4844V5.57812H88.9844C90.7604 5.57812 92.1406 6.07031 93.125 7.05469C94.1094 8.03906 94.6016 9.41406 94.6016 11.1797ZM93.1953 11.2266C93.1953 9.73698 92.8203 8.61458 92.0703 7.85938C91.3255 7.10417 90.2161 6.72656 88.7422 6.72656H86.8125V15.8516H88.4297C90.013 15.8516 91.2031 15.4635 92 14.6875C92.7969 13.9062 93.1953 12.7526 93.1953 11.2266ZM97.1562 17V5.57812H98.4844V15.7969H103.523V17H97.1562Z" fill="#262626"/>
<path fill-rule="evenodd" clip-rule="evenodd" d="M85 193.605C115.984 193.605 141.419 168.437 141.419 137C141.419 105.563 115.984 80.3948 85 80.3948C54.0162 80.3948 28.5808 105.563 28.5808 137C28.5808 168.437 54.0162 193.605 85 193.605ZM85 222C131.944 222 170 183.944 170 137C170 90.0558 131.944 52 85 52C38.0558 52 0 90.0558 0 137C0 183.944 38.0558 222 85 222Z" fill="#9CC68A"/>
</svg>
