<svg width="29" height="25" viewBox="0 0 29 25" fill="none" xmlns="http://www.w3.org/2000/svg">
<circle r="2.5" transform="matrix(-4.37114e-08 -1 -1 4.37114e-08 3.38281 2.90112)" fill="#EB5E43"/>
<path fill-rule="evenodd" clip-rule="evenodd" d="M16.499 20.8245C21.0555 20.8245 24.796 17.1234 24.796 12.5002C24.796 7.87712 21.0555 4.17595 16.499 4.17595C11.9426 4.17595 8.20208 7.87712 8.20208 12.5002C8.20208 17.1234 11.9426 20.8245 16.499 20.8245ZM16.499 25.0002C23.4026 25.0002 28.999 19.4038 28.999 12.5002C28.999 5.59668 23.4026 0.000244141 16.499 0.000244141C9.59546 0.000244141 3.99902 5.59668 3.99902 12.5002C3.99902 19.4038 9.59546 25.0002 16.499 25.0002Z" fill="#9CC68A"/>
</svg>
